<svg data-name="Layer 1" xmlns="http://www.w3.org/2000/svg" viewBox="0 0 165.65 33.59"><title>logo-icon1000-full</title><path d="M59.2 8.38h2.08v13.4h-2l-2.94-8.37v8.37h-2.13V8.38h2.14l2.81 7.67V8.38zm14.3 3.25v6.91a3.54 3.54 0 0 1-7.07 0v-6.91a3.54 3.54 0 0 1 7.07 0zm-2.31.05c0-1-.3-1.49-1.23-1.49s-1.23.48-1.23 1.49v6.8c0 1 .3 1.48 1.23 1.48s1.23-.48 1.23-1.48v-6.8zM33 21.79h2.31V8.38H33v13.4zm47-5.74l-2.8-7.67h-2.14v13.4h2.08v-8.37l2.94 8.37h2V8.38H80v7.67zm-27.34-4.42v6.91A3.22 3.22 0 0 1 49.12 22a3.23 3.23 0 0 1-3.54-3.43v-6.94a3.22 3.22 0 0 1 3.54-3.43 3.22 3.22 0 0 1 3.54 3.43zm-2.31.05c0-1-.3-1.49-1.23-1.49s-1.23.48-1.23 1.49v6.8c0 1 .3 1.48 1.23 1.48s1.23-.48 1.23-1.48v-6.8zM40.5 8.2a3.22 3.22 0 0 0-3.5 3.43v6.91A3.22 3.22 0 0 0 40.5 22a3.19 3.19 0 0 0 3.42-3.43V17h-2.3v1.62c0 .87-.28 1.35-1.12 1.35s-1.23-.48-1.23-1.48v-6.8c0-1 .3-1.49 1.23-1.49.6 0 1.12.48 1.12 1.62v1h2.3v-1c0-1.95-1.12-3.62-3.42-3.62zm125.15 1.36a1.37 1.37 0 1 1-1.37-1.36 1.37 1.37 0 0 1 1.37 1.36zm-.22 0a1.15 1.15 0 1 0-2.3 0 1.14 1.14 0 0 0 1.15 1.14 1.15 1.15 0 0 0 1.15-1.14zm-13.8 6.49l-2.81-7.67h-2.14v13.4h2.08v-8.37l2.94 8.37h2V8.38h-2.08v7.67zm-19.89-4.53a1.13 1.13 0 0 1 1.15-1.32c.52 0 1.14.34 1.23 1.49l2.19-.24c-.2-1.89-1.32-3.25-3.2-3.25-2.27 0-3.57 1.21-3.57 3.34 0 3.84 4.69 4.55 4.69 7.2A1.18 1.18 0 0 1 132.9 20c-.74 0-1.28-.67-1.38-2l-2.2.32c.09 2 1.32 3.71 3.46 3.71s3.65-1.23 3.65-3.43c0-3.7-4.69-4.8-4.69-7.08zm11-3.14l2.47 13.4H143l-.41-3H140l-.41 3h-2.23l2.47-13.4h2.87zm-.5 8.43l-.91-5.76-.91 5.76h1.86zm19.92-4.38v5.31c0 2.75-1.27 4-3.65 4h-3.42V8.38h3.42c2.36 0 3.63 1.3 3.63 4.05zm-2.31-.28c0-1.41-.43-1.87-1.65-1.87h-.8v9.62h.8c1.23 0 1.65-.46 1.65-1.87v-5.88zM86 15.85h3v-2h-3v-3.46h3.87v-2h-6.19v13.4h6.44v-2H86v-3.94zm39.68 2.66c0 1-.39 1.47-1.23 1.47s-1.23-.48-1.23-1.46V8.38h-2.31v10a3.53 3.53 0 1 0 7.07 0v-10h-2.31V18.5zM95 10.39h2.23v11.4h2.31v-11.4h2.23v-2H95v2zm13.19 3.46h-2.45V8.38h-2.31v13.4h2.31v-5.93h2.45v5.94h2.31V8.38h-2.31v5.46zm11.13-2.21v6.91a3.54 3.54 0 0 1-7.07 0v-6.92a3.54 3.54 0 0 1 7.1 0zm-2.31.05c0-1-.3-1.49-1.23-1.49s-1.23.48-1.23 1.49v6.8c0 1 .3 1.48 1.23 1.48s1.23-.48 1.23-1.48v-6.8zM11.89 5.26h-.79a1.56 1.56 0 0 0-1.56 1.57L9.52 24a1.56 1.56 0 0 0 1.56 1.56h.79A1.56 1.56 0 0 0 13.43 24v-8.27h-1.55V24a.39.39 0 0 1-.78 0V6.82a.39.39 0 1 1 .78 0v8.12h1.56V6.83a1.56 1.56 0 0 0-1.55-1.57zm-3.1.12a.13.13 0 0 0-.12-.13H7.15a.3.3 0 0 0-.15.1l-.46.42a.33.33 0 0 0-.11.23v.7a.13.13 0 0 0 .13.13h.53a.12.12 0 0 1 .12.13v18.49a.13.13 0 0 0 .13.13h1.3a.12.12 0 0 0 .13-.12V6.95 5.39zm10 20.19h1.32a.13.13 0 0 0 .13-.13V7a.69.69 0 0 1 .05-.24.46.46 0 0 1 .34-.28.47.47 0 0 1 .34.28A.81.81 0 0 1 21 7v18.45a.12.12 0 0 0 .12.12h1.32a.12.12 0 0 0 .13-.12V6.84A1.56 1.56 0 0 0 21 5.27h-.74a1.56 1.56 0 0 0-1.57 1.56v18.62a.12.12 0 0 0 .11.13zM164.52 9.65l.48.72h-.27l-.48-.72H164v.72h-.21V8.75h.64a.43.43 0 0 1 .53.45.44.44 0 0 1-.41.45zm-.19-.19c.22 0 .39 0 .39-.26s-.19-.25-.39-.25H164v.5h.35zM14.1 24V6.82a1.56 1.56 0 0 1 1.56-1.56h.79A1.56 1.56 0 0 1 18 6.83V24a1.56 1.56 0 0 1-1.57 1.56h-.77A1.56 1.56 0 0 1 14.1 24zm1.56 0a.39.39 0 1 0 .78 0V6.82a.39.39 0 0 0-.78 0zM0 0h29v28.54l-14.59 5L0 28.55V0zm3 26.51l11.48 3.9 11.61-3.9V3H3v23.51z"></path></svg>