<svg data-name="Layer 1" xmlns="http://www.w3.org/2000/svg" viewBox="0 0 107.64 26.75"><title>logo-icon-small</title><path d="M103.34 7H83.75c-.93 0-1.75 0-1.81 1.32C80.64 7 79.13 7 77.57 7H61.81a8.19 8.19 0 0 0-3.75.87.48.48 0 0 1-.54.12c.22-1 .22-1-.87-1C50.58 7 44.51 7 38.44 7c-2 0-4 0-5.87 1.3a3.45 3.45 0 0 1 0-.41c.26-.89.27-.89-.62-.89h-6.2c-.63 0-.66-.2-.38-.64A5.73 5.73 0 0 0 26 4.67 3.56 3.56 0 0 0 23.65.25a5.86 5.86 0 0 0-4.84.75 7.69 7.69 0 0 0-4.17 5.59c-.08.48-.37.41-.69.41H7.68a1.16 1.16 0 0 0-1.33 1Q3.26 17 .09 26c-.25.71 0 .73.59.73h24.48c.6 0 1.11 0 1.22-.79.06-.4.24-.46.61-.16a4.87 4.87 0 0 0 3.15 1H49.8c.83 0 1.44-.11 1.57-1a.39.39 0 0 1 .15-.08 5.6 5.6 0 0 0 3.92 1.12h14.31c2.08 0 4.14 0 6.06-1.26-.1 1.24-.1 1.24 1.1 1.24h25.17a.57.57 0 0 0 .7-.41c1.49-4.4 3-8.78 4.51-13.17a6.23 6.23 0 0 0 .35-1.63 4 4 0 0 0-4.3-4.59zm-86.1-1.24a4.57 4.57 0 0 1 4.12-3.3A2 2 0 0 1 23.47 5a4.6 4.6 0 0 1-4.19 3.41 2 2 0 0 1-2.04-2.65zm-5.37 15.62a2.34 2.34 0 0 0 .45 2.74.56.56 0 0 1-.58.13H3.87c-.59 0-.67-.12-.47-.68Q5.74 16.86 8 10.13a.89.89 0 0 1 1-.73h8.32a6.14 6.14 0 0 0-2.58 3.6c-.9 2.83-1.91 5.6-2.87 8.38zm12.82 2.38a.58.58 0 0 1-.63.5h-8.54a6.3 6.3 0 0 0 2.57-3.68C19 17.81 20 15.1 20.9 12.36a2.41 2.41 0 0 0-.44-2.88 1 1 0 0 1 .65-.07H29c.41 0 .68 0 .47.55-1.61 4.6-3.19 9.2-4.77 13.8zM51.87 15H37.26a1.62 1.62 0 0 0-1.92 1.34c-.13.38-.26.77-.38 1.16-.29.89-.1 1.16.84 1.17h14.15c1.4 0 1.39 0 .94 1.3s-.89 2.49-1.29 3.74a.7.7 0 0 1-.81.58H31c-2.25 0-3.38-1.49-2.68-3.64Q29.62 16.8 31 13a5.6 5.6 0 0 1 5.2-3.6h17.59c.61 0 .74.1.51.71q-.8 2.1-1.46 4.25a.83.83 0 0 1-1 .66zm20.37 9.26H55.87c-2.44 0-3.54-1.52-2.75-3.82s1.65-4.8 2.49-7.19A5.61 5.61 0 0 1 61 9.45h16.53c2.2 0 3.33 1.41 2.68 3.51-.83 2.66-1.69 5.33-2.76 7.9a5.3 5.3 0 0 1-5.22 3.42zm32.6-11.13c-1.19 3.53-2.43 7-3.63 10.58a.72.72 0 0 1-.84.55h-7.42c-.57 0-.69-.1-.49-.67 1-2.7 1.89-5.41 2.82-8.13.38-1.12.19-1.38-1-1.38h-2.52a.78.78 0 0 0-.92.65c-1 3-2.06 5.94-3.06 8.92a.75.75 0 0 1-.85.62h-7.49c-.48 0-.62-.06-.44-.58q2.41-6.9 4.77-13.81a.67.67 0 0 1 .8-.48H102.08c2.36 0 3.47 1.51 2.72 3.73zM72.67 15h-9.55c-2.8 0-2.59 0-3.48 2.57-.28.82-.06 1.12.83 1.12h9.7c2.53 0 2.55.2 3.4-2.45.31-1 .12-1.24-.91-1.24"></path></svg>