<svg data-name="Layer 1" xmlns="http://www.w3.org/2000/svg" viewBox="0 0 54.33 57.22"><title>logo-icon1000-small</title><path d="M22.86 11.65v13.82H20.2V11.64a.67.67 0 0 0-1.33 0v29.27a.67.67 0 1 0 1.33 0V26.8h2.66v14.11a2.67 2.67 0 0 1-2.66 2.66h-1.36a2.66 2.66 0 0 1-2.65-2.66V11.65A2.66 2.66 0 0 1 18.88 9h1.33a2.66 2.66 0 0 1 2.65 2.65zM32 43.58h2.2a.21.21 0 0 0 .21-.21v-31.5a1.19 1.19 0 0 1 .09-.41.78.78 0 0 1 .61-.46.8.8 0 0 1 .58.47 1.42 1.42 0 0 1 .09.41v31.48a.21.21 0 0 0 .21.21h2.24a.21.21 0 0 0 .22-.21v-31.7A2.66 2.66 0 0 0 35.78 9h-1.33a2.66 2.66 0 0 0-2.66 2.65v31.71a.21.21 0 0 0 .21.22zM14.72 9h-2.56a.51.51 0 0 0-.29.14l-.77.71a.55.55 0 0 0-.16.36v1.23a.22.22 0 0 0 .22.22h.9a.21.21 0 0 1 .21.21v31.49a.22.22 0 0 0 .21.22h2.24a.21.21 0 0 0 .22-.21V11.88 9.19a.22.22 0 0 0-.22-.19zM24 40.91V11.64A2.66 2.66 0 0 1 26.66 9H28a2.66 2.66 0 0 1 2.66 2.66v29.26A2.66 2.66 0 0 1 28 43.58h-1.37A2.66 2.66 0 0 1 24 40.91zm2.66 0a.67.67 0 1 0 1.33 0V11.64a.67.67 0 0 0-1.33 0zM0 0h49.37v48.64l-24.8 8.59L0 48.64V0zm5.05 45.17l19.52 6.63 19.75-6.64V5.06H5.05v40.1zM52.89 1.93l.65 1h-.35l-.63-1h-.4v1h-.28V.73h.85a.57.57 0 0 1 .7.6.58.58 0 0 1-.54.6zm-.25-.26c.28 0 .51 0 .51-.35S52.9 1 52.64 1h-.48v.67h.47zm1.69.08a1.78 1.78 0 1 1-3.56.06 1.78 1.78 0 0 1 3.56-.06zm-.22.06a1.52 1.52 0 1 0-1.52 1.52 1.52 1.52 0 0 0 1.51-1.52z"></path></svg>