<svg xmlns="http://www.w3.org/2000/svg" xmlns:xlink="http://www.w3.org/1999/xlink" viewBox="0 0 230 230" version="1.1" class="svg product-type-image replaced-svg"><!-- Generator: Sketch 3.6.1 (26313) - http://www.bohemiancoding.com/sketch --><title>moto-icon-jackets</title><desc>Created with Sketch.</desc><defs></defs><g id="Page-1" stroke="none" stroke-width="1" fill="none" fill-rule="evenodd" stroke-linecap="round" stroke-linejoin="round"><g id="moto-icon-jackets" stroke="#FFFFFF"><g id="Page-1" transform="translate(28.000000, 36.000000)"><path d="M87.5925121,2.66745882 L85.223216,2.66745882 C85.223216,2.66745882 79.6707888,2.07482246 77.8196966,1.18544278 C75.9694539,0.296063102 73.6001578,0.148116578 72.415085,2.07482246 C71.2308617,4.00152834 71.452585,6.22412727 68.1216383,7.33542674 C64.7898422,8.44757647 43.1713956,15.1162235 41.3211529,16.1535497 C39.4700607,17.1908759 32.6586529,20.4516513 24.3665413,33.7897957 C16.0744296,47.1279401 4.82175971,62.9854267 2.00816748,76.2495979 C-0.805424757,89.5129187 0.823944175,98.8497048 1.63777913,104.481876 C2.38025485,109.61579 7.42976942,130.083427 9.55015777,135.064293 C9.75574029,135.547245 9.93413835,135.884801 10.0777063,136.048052 C11.7070752,137.900785 14.0016141,147.385518 14.0016141,147.385518 C14.0016141,147.385518 14.2241869,150.201603 19.4801335,149.312224 C24.7369296,148.422844 32.5108374,145.236892 34.065449,142.346833 C34.065449,142.346833 35.1757646,142.124913 33.6211529,135.900106 C32.0665413,129.675298 31.6961529,129.527352 31.6961529,129.527352 C31.6961529,129.527352 31.8439684,128.711945 31.0301335,126.415373 C30.215449,124.117951 25.7733374,96.182416 26.6619296,94.4776299 C27.5505218,92.7736941 44.504284,71.877523 44.504284,71.877523 L45.3189684,138.122705 C45.3189684,138.122705 43.6895995,137.456095 43.6156917,139.753518 C43.541784,142.05009 43.6895995,144.718229 45.9849879,144.718229 L46.429284,147.904181 C46.429284,147.904181 52.4260073,156.500384 59.08875,157.463737 C65.7523422,158.42624 87.5186044,158.575036 87.5186044,158.575036" id="Stroke-1" stroke-width="1.5"></path><path d="M68.7608131,7.37266845 C68.7608131,7.37266845 75.7693083,17.4559893 84.8208859,20.0135936 L87.5588714,20.0135936 C87.5588714,20.0135936 73.2504976,9.30872727 73.2504976,1.2354385" id="Stroke-3"></path><path d="M41.3208131,16.1538048 C41.3208131,16.1538048 44.7435073,23.9949706 43.8311286,33.5672807" id="Stroke-5"></path><path d="M9.55041262,135.064293 C9.55041262,135.064293 18.6597573,126.30909 31.302233,127.729036" id="Stroke-7"></path><path d="M14.5315413,147.355248 C14.5315413,147.355248 28.9027791,136.669088 33.8044782,138.993719" id="Stroke-9"></path><path d="M45.0085558,99.9037813 C45.0085558,99.9037813 48.1865898,107.523027 51.7970267,113.099931 C55.4066141,118.676835 56.6621966,123.625391 57.0155947,129.947979 C57.3689927,136.271418 57.7215413,151.35261 57.7215413,151.35261 C57.7215413,151.35261 58.8208131,153.630476 87.3865898,153.630476" id="Stroke-11"></path><path d="M45.3186286,138.12313 L51.1692354,140.591456 L57.2509102,138.391814" id="Stroke-13"></path><path d="M45.9849879,144.718059 L49.4815898,144.558209 L57.2903277,149.074829" id="Stroke-15"></path><path d="M44.3776214,72.1487583 C44.3776214,72.1487583 44.646068,53.6129294 46.6594175,45.4189027 C48.6719175,37.2257262 49.6114806,34.5397316 59.1396359,27.2861005 C68.6677913,20.0333198 73.4989806,17.6151594 74.7069903,15.063507" id="Stroke-17"></path><path d="M71.8886408,11.8394631 C71.8886408,11.8394631 51.6243204,25.6741636 48.4038107,28.7640353 C45.1824515,31.8530567 38.3387621,40.1805754 35.3858495,48.1059176 C32.4337864,56.0304096 33.7760194,57.3738321 33.5075728,59.5224578 C33.2391262,61.6719337 31.36,67.4478 29.4817233,71.2085326 C27.6025971,74.9692652 25.586699,83.4957465 26.6621845,94.4778" id="Stroke-19"></path><path d="M33.5074029,59.5227128 C33.5074029,59.5227128 37.2648058,73.4917556 35.5207524,82.6253278" id="Stroke-21"></path><path d="M20.4899515,39.7778037 C20.4899515,39.7778037 32.9701699,45.2849856 35.9230825,45.5536701" id="Stroke-23"></path><path d="M8.68033981,59.5227128 C8.68033981,59.5227128 10.2910194,60.0600818 8.68033981,65.4329214 C7.06966019,70.805761 9.08300971,73.4917556 13.914199,76.9838037 C18.7453883,80.4767021 26.1259709,93.371007 26.5286408,96.7287128" id="Stroke-25"></path><path d="M1.65408981,78.7580567 C1.65408981,78.7580567 17.1347937,80.7451316 27.4682888,105.997222" id="Stroke-27"></path><path d="M26.2915413,31.4890572 C26.2915413,31.4890572 31.0394782,31.7245813 32.6093811,33.4922872 C34.1784345,35.2591428 35.316784,34.277084 36.2189684,33.4922872 C37.1211529,32.7066401 38.7301335,30.8215973 39.0045267,29.682239 C39.2797694,28.543731 39.0045267,23.5161 35.434017,20.7280733" id="Stroke-29"></path><path d="M48.8931311,28.2293021 L49.0502913,23.1634091 L70.2388835,9.49536096" id="Stroke-31"></path><path d="M1.63106796,103.648529 L5.69429612,92.2217856 L18.2730583,119.723684 L11.693568,128.632786 L1.63106796,103.648529 L1.63106796,103.648529 Z" id="Stroke-33"></path><path d="M87.5357646,2.66745882 L89.9050607,2.66745882 C89.9050607,2.66745882 95.4574879,2.07482246 97.3085801,1.18544278 C99.1588228,0.296063102 101.528119,0.148116578 102.713192,2.07482246 C103.897415,4.00152834 103.675692,6.22412727 107.006638,7.33542674 C110.338434,8.44757647 131.956881,15.1162235 133.807973,16.1535497 C135.658216,17.1908759 142.469624,20.4516513 150.761735,33.7897957 C159.053847,47.1279401 170.306517,62.9854267 173.120109,76.2495979 C175.933701,89.5129187 174.304333,98.8497048 173.490498,104.481876 C172.748022,109.61579 167.698507,130.083427 165.578119,135.064293 C165.372536,135.547245 165.194138,135.884801 165.05057,136.048052 C163.421201,137.900785 161.126663,147.385518 161.126663,147.385518 C161.126663,147.385518 160.90409,150.201603 155.648143,149.312224 C150.391347,148.422844 142.617439,145.236892 141.062828,142.346833 C141.062828,142.346833 139.952512,142.124913 141.507124,135.900106 C143.061735,129.675298 143.432124,129.527352 143.432124,129.527352 C143.432124,129.527352 143.284308,128.711945 144.098143,126.415373 C144.912828,124.117951 149.354939,96.182416 148.466347,94.4776299 C147.577755,92.7736941 130.623993,71.877523 130.623993,71.877523 L129.809308,138.122705 C129.809308,138.122705 131.438677,137.456095 131.512585,139.753518 C131.586493,142.05009 131.438677,144.718229 129.143289,144.718229 L128.698993,147.904181 C128.698993,147.904181 122.702269,156.500384 116.039527,157.463737 C109.375934,158.42624 87.6096723,158.575036 87.6096723,158.575036" id="Stroke-35" stroke-width="1.5"></path><path d="M106.367464,7.37266845 C106.367464,7.37266845 99.3589684,17.4559893 90.3073908,20.0135936 L87.5694053,20.0135936 C87.5694053,20.0135936 101.877779,9.30872727 101.877779,1.2354385" id="Stroke-37"></path><path d="M133.807549,16.1538048 C133.807549,16.1538048 130.384854,23.9949706 131.297233,33.5672807" id="Stroke-39"></path><path d="M165.577864,135.064293 C165.577864,135.064293 156.468519,126.30909 143.826044,127.729036" id="Stroke-41"></path><path d="M160.596735,147.355248 C160.596735,147.355248 146.225498,136.669088 141.323799,138.993719" id="Stroke-43"></path><path d="M87.7416869,153.630221 C116.307464,153.630221 117.406735,151.352355 117.406735,151.352355 C117.406735,151.352355 117.759284,136.271163 118.112682,129.948574 C118.46608,123.625136 119.721663,118.67658 123.33125,113.099676 C126.941687,107.522772 130.119721,99.9035262 130.119721,99.9035262" id="Stroke-45"></path><path d="M129.809648,138.12313 L123.959041,140.591456 L117.877367,138.391814" id="Stroke-47"></path><path d="M129.143289,144.718059 L125.646687,144.558209 L117.837949,149.074829" id="Stroke-49"></path><path d="M130.750655,72.1487583 C130.750655,72.1487583 130.482209,53.6129294 128.468859,45.4189027 C126.456359,37.2257262 125.516796,34.5397316 115.988641,27.2861005 C106.460485,20.0333198 101.629296,17.6151594 100.421286,15.063507" id="Stroke-51"></path><path d="M103.239636,11.8394631 C103.239636,11.8394631 123.503956,25.6741636 126.724466,28.7640353 C129.945825,31.8530567 136.789515,40.1805754 139.742427,48.1059176 C142.69449,56.0304096 141.352257,57.3738321 141.620704,59.5224578 C141.88915,61.6719337 143.768277,67.4478 145.646553,71.2085326 C147.52568,74.9692652 149.541578,83.4957465 148.466092,94.4778" id="Stroke-53"></path><path d="M141.620874,59.5227128 C141.620874,59.5227128 137.863471,73.4917556 139.607524,82.6253278" id="Stroke-55"></path><path d="M154.638325,39.7778037 C154.638325,39.7778037 142.158107,45.2849856 139.205194,45.5536701" id="Stroke-57"></path><path d="M166.447937,59.5227128 C166.447937,59.5227128 164.837257,60.0600818 166.447937,65.4329214 C168.058617,70.805761 166.045267,73.4917556 161.214078,76.9838037 C156.382888,80.4767021 149.002306,93.371007 148.599636,96.7287128" id="Stroke-59"></path><path d="M173.474187,78.7580567 C173.474187,78.7580567 157.993483,80.7451316 147.659988,105.997222" id="Stroke-61"></path><path d="M148.836735,31.4890572 C148.836735,31.4890572 144.088799,31.7245813 142.518896,33.4922872 C140.949842,35.2591428 139.811493,34.277084 138.909308,33.4922872 C138.007124,32.7066401 136.398143,30.8215973 136.1229,29.682239 C135.848507,28.543731 136.1229,23.5161 139.69426,20.7280733" id="Stroke-63"></path><path d="M126.235146,28.2293021 L126.077985,23.1634091 L104.889393,9.49536096" id="Stroke-65"></path><path d="M173.497209,103.648529 L169.433981,92.2217856 L156.855218,119.723684 L163.434709,128.632786 L173.497209,103.648529 L173.497209,103.648529 Z" id="Stroke-67"></path><path d="M87,20.0131684 L87,153.423521" id="Stroke-69"></path></g></g></g></svg>