<svg xmlns="http://www.w3.org/2000/svg" xmlns:xlink="http://www.w3.org/1999/xlink" viewBox="0 0 230 230" version="1.1" class="svg product-type-image replaced-svg"><!-- Generator: Sketch 3.6.1 (26313) - http://www.bohemiancoding.com/sketch --><title>moto-icon-helmets</title><desc>Created with Sketch.</desc><defs></defs><g id="Page-1" stroke="none" stroke-width="1" fill="none" fill-rule="evenodd" stroke-linejoin="round"><g id="moto-icon-helmets" stroke="#FFFFFF"><g id="Page-1" transform="translate(44.000000, 35.000000)"><path d="M21.2099493,22.1813804 C4.03628015,40.2975634 3.55575809,51.5738771 3.55575809,51.5738771 L0.827191912,52.5377725 L0.827191912,61.6937268 C0.827191912,61.6937268 -0.456653676,80.6464784 2.2719125,120.640773 L0.525419853,123.692407 C0.525419853,123.692407 5.64292721,139.754524 12.8644272,148.266478 C20.0869787,156.779485 17.839986,157.90438 16.3952654,160.474067 C16.3952654,160.474067 45.1235449,140.075472 69.518714,132.205413 C93.9138831,124.334302 101.457133,125.780145 119.433074,114.215505 C137.407964,102.650864 137.889537,92.3710667 137.889537,92.3710667 C137.889537,92.3710667 138.050412,84.8219556 140.13653,78.5576876 C142.222648,72.2944719 142.507596,67.9569425 141.563376,57.5171974 C141.563376,57.5171974 138.852685,43.7038183 133.074854,32.7821255 L139.815832,24.9110144 C139.815832,24.9110144 135.001148,26.1969098 131.630133,23.7871712 C128.26017,21.3774327 110.284229,0.340099346 71.9265816,0.340099346 C71.9265816,0.340099346 41.9144566,0.340099346 21.2099493,22.1813804 Z" id="Stroke-1" stroke-width="1.5"></path><path d="M111.813067,9.48858235 C111.813067,9.48858235 120.71692,20.2534843 120.235346,24.4300137 L106.432692,55.2683536 L120.254273,48.5221379 L133.074854,32.7820203" id="Stroke-3"></path><path d="M120.254168,48.5224536 L104.346469,82.2524797 L115.902131,96.8687542" id="Stroke-5" stroke-linecap="round"></path><path d="M46.5684757,108.42203 L14.6300566,134.281997 L27.9511375,141.991056 C27.9511375,141.991056 44.4823581,131.390311 52.1854316,128.338677" id="Stroke-7" stroke-linecap="round"></path><path d="M1.62998971,62.813466 C1.62998971,62.813466 26.0251588,63.2996229 47.0503647,50.4501392 C68.0745191,37.6006556 70.3215118,43.5429235 72.0869309,46.7555575 C73.85235,49.9681915 77.5440632,70.3667863 65.5068279,84.6621131 C53.4695926,98.9563876 53.1488941,95.9047536 42.0748059,102.008022 C31.0007176,108.112342 0.525945588,123.692512 0.525945588,123.692512" id="Stroke-9" stroke-linecap="round"></path><path d="M24.4201941,38.4034458 C24.4201941,38.4034458 44.5211574,16.2380601 74.0327824,16.2380601 C103.544407,16.2380601 118.941091,27.3207529 118.941091,27.3207529" id="Stroke-11" stroke-linecap="round"></path><path d="M104.346364,82.2523745 C104.346364,82.2523745 47.8634669,114.664937 24.4198787,138.700237" id="Stroke-13" stroke-linecap="round"></path><path d="M22.7054559,60.1816948 C22.7054559,60.1816948 36.9633971,57.3552503 40.4080147,66.9731588 C43.8536838,76.5910673 44.7600515,88.0231196 44.7600515,88.0231196 C44.7600515,88.0231196 47.6242574,99.1500085 37.2788382,104.60191" id="Stroke-15" stroke-linecap="round"></path><path d="M53,48.1362641 L53,96.3857542" id="Stroke-17" stroke-linecap="round"></path></g></g></g></svg>