<svg xmlns="http://www.w3.org/2000/svg" xmlns:xlink="http://www.w3.org/1999/xlink" viewBox="0 0 100 100" version="1.1" class="svg product-type-image replaced-svg"><!-- Generator: Sketch 3.6.1 (26313) - http://www.bohemiancoding.com/sketch --><title>moto-icon-casuals</title><desc>Created with Sketch.</desc><defs></defs><g id="Page-1" stroke="none" stroke-width="1" fill="none" fill-rule="evenodd" stroke-linecap="round" stroke-linejoin="round"><g id="moto-icon-casuals" stroke="#FFFFFF"><g id="Page-1" transform="translate(13.000000, 14.000000)"><path d="M36.9926783,1.88821405 L36.0522127,1.88821405 C36.0522127,1.88821405 32.0550381,1.94740324 29.7038741,0.0517708108 C29.7038741,0.0517708108 18.0651228,4.37613297 16.4782339,5.14638162 C14.8909534,5.91663027 14.9496836,6.21257622 13.3040646,8.34536 C11.658054,10.4781438 3.25220212,22.8001492 0.195884656,24.4586303 C0.195884656,24.4586303 10.600128,34.5890573 11.658054,35.240533 C11.658054,35.240533 16.1841915,33.167333 16.7718847,32.2191222 C16.7718847,32.2191222 18.1238529,41.5201114 18.1238529,51.7685222 C18.1238529,62.0173276 18.0651228,72.5028897 18.0651228,72.5028897 C18.0651228,72.5028897 19.2409005,73.035987 36.9926783,72.6804573" id="Stroke-1"></path><path d="M29.6416201,0.132347027 C29.6416201,0.132347027 30.0026148,9.44241189 37.0619799,9.44241189" id="Stroke-3" stroke-width="0.75"></path><path d="M26.6909386,1.24904973 C26.6909386,1.24904973 26.7281344,12.692293 37.1116265,12.692293" id="Stroke-5" stroke-width="0.75"></path><path d="M15.3074677,5.87259351 C15.3074677,5.87259351 15.4860074,9.03526919 15.5114571,11.0666422 C15.5369069,13.0976205 15.4096582,18.4459557 15.6899968,21.63428 C15.970727,24.8226043 16.7721979,32.21928 16.7721979,32.21928" id="Stroke-7" stroke-width="0.75"></path><path d="M2.0406381,22.9971308 L13.8532307,33.8220443" id="Stroke-9" stroke-width="0.75"></path><path d="M18.2024339,69.3163805 C18.2024339,69.3163805 20.9224233,70.6516886 37.0328889,70.0191535" id="Stroke-11" stroke-width="0.75"></path><path d="M37.1388381,1.88821405 L38.0793037,1.88821405 C38.0793037,1.88821405 42.0764783,1.94740324 44.4276423,0.0517708108 C44.4276423,0.0517708108 56.0663937,4.37613297 57.6532825,5.14638162 C59.240563,5.91663027 59.1818328,6.21257622 60.8274519,8.34536 C62.4734624,10.4781438 70.8793143,22.8001492 73.9356317,24.4586303 C73.9356317,24.4586303 63.5313884,34.5890573 62.4734624,35.240533 C62.4734624,35.240533 57.9473249,33.167333 57.3596317,32.2191222 C57.3596317,32.2191222 56.0076635,41.5201114 56.0076635,51.7685222 C56.0076635,62.0173276 56.0663937,72.5028897 56.0663937,72.5028897 C56.0663937,72.5028897 54.8906159,73.035987 37.1388381,72.6804573" id="Stroke-13"></path><path d="M44.4898963,0.132347027 C44.4898963,0.132347027 44.1289016,9.44241189 37.0695365,9.44241189" id="Stroke-15" stroke-width="0.75"></path><path d="M47.4405778,1.24904973 C47.4405778,1.24904973 47.403382,12.692293 37.0198899,12.692293" id="Stroke-17" stroke-width="0.75"></path><path d="M58.8240487,5.87259351 C58.8240487,5.87259351 58.645509,9.03526919 58.6200593,11.0666422 C58.5946095,13.0976205 58.7218582,18.4459557 58.4415196,21.63428 C58.1607894,24.8226043 57.3593185,32.21928 57.3593185,32.21928" id="Stroke-19" stroke-width="0.75"></path><path d="M72.0908783,22.9971308 L60.2782857,33.8220443" id="Stroke-21" stroke-width="0.75"></path><path d="M55.9290825,69.3163805 C55.9290825,69.3163805 53.2090931,70.6516886 37.0986275,70.0191535" id="Stroke-23" stroke-width="0.75"></path></g></g></g></svg>