<svg xmlns="http://www.w3.org/2000/svg" xmlns:xlink="http://www.w3.org/1999/xlink" viewBox="0 0 100 100" version="1.1" class="svg product-type-image replaced-svg"><!-- Generator: Sketch 3.6.1 (26313) - http://www.bohemiancoding.com/sketch --><title>moto-icon-vests</title><desc>Created with Sketch.</desc><defs></defs><g id="Page-1" stroke="none" stroke-width="1" fill="none" fill-rule="evenodd" stroke-linecap="round" stroke-linejoin="round"><g id="moto-icon-vests" stroke="#FFFFFF"><g id="Page-1" transform="translate(25.000000, 15.000000)"><path d="M24.73444,3.03530884 C24.73444,3.03530884 23.31484,3.10473978 20.19124,1.9910989 C17.06804,0.877458011 17.28084,0.738203867 16.07404,0.877458011 C14.86724,1.01671215 14.72524,1.22539724 11.74404,3.10473978 C8.76244,4.98447459 5.49724,6.79438619 3.01284,7.90841934 C0.52804,9.02206022 0.03124,15.1480657 0.24444,16.9579773 C0.45724,18.767889 0.52804,22.6662204 3.58044,31.0199 C3.58044,31.0199 5.42644,37.841784 5.21324,46.7524801 L5.71004,63.4598392 C5.71004,63.4598392 5.28444,64.5734801 6.63284,65.2697508 C6.63284,65.2697508 10.32444,67.3581707 11.60204,68.6804967 C12.87964,70.0032149 14.44164,70.4209773 16.50004,70.5602315 C18.55884,70.6994856 30.69724,71.2565022 43.68764,70.0032149 C43.68764,70.0032149 46.31404,69.7945298 47.73404,66.4532149 C47.73404,66.4532149 48.01764,66.2441376 47.66284,62.2065519 C47.20324,56.9753033 46.88204,50.9293199 46.88204,45.6388392 C46.88204,40.3479663 47.37884,30.3934525 48.37284,28.3744635 C49.36644,26.3558669 49.01164,27.3302536 48.79884,25.3810878 C48.58564,23.4319221 47.87604,21.2740713 48.51484,17.4451707 C49.15364,13.6166624 50.07644,10.3447785 49.57964,7.69934199 C49.08244,5.05390552 49.29564,5.12372873 47.09484,4.35802707 C44.89444,3.59232541 41.55804,2.8960547 35.02724,0.111364088 C35.02724,0.111364088 32.11684,1.92166796 29.34844,2.47829227 C26.58004,3.03530884 26.58004,3.03530884 24.73444,3.03530884 L24.73444,3.03530884 Z" id="Stroke-1"></path><path d="M14.7964,1.36457293 C14.7964,1.36457293 12.0988,5.26290442 14.5836,7.14263923 C17.068,9.02198177 22.9596,8.46496519 26.2252,6.86413094 C29.4904,5.26290442 32.6848,3.80093204 35.0276,0.111677901" id="Stroke-3" stroke-width="0.75"></path><path d="M48.15984,4.70604475 C48.15984,4.70604475 43.82984,6.58577956 43.68784,14.2431884 C43.54584,21.9005972 44.25544,24.5456414 48.37264,28.374542" id="Stroke-5" stroke-width="0.75"></path><path d="M13.37672,4.91484751 L0.74112,12.0152398" id="Stroke-7" stroke-width="0.75"></path><path d="M32.40092,3.17452376 L44.46852,9.23070608" id="Stroke-9" stroke-width="0.75"></path><path d="M19.74548,8.4322895 C19.74548,8.4322895 16.42908,25.3114608 18.34588,65.8265713" id="Stroke-11" stroke-width="0.75"></path><path d="M5.72796,63.7033182 C5.72796,63.7033182 6.13596,66.4530972 25.23116,66.2440199 C25.23116,66.2440199 35.59516,66.3138431 39.71236,65.5481414 C43.82956,64.7824398 46.59796,65.5481414 47.73396,65.9659039" id="Stroke-13" stroke-width="0.75"></path><path d="M14.0718,6.7501779 C14.0718,6.7501779 11.6034,7.57001215 5.825,12.8318575 C1.207,17.0369403 2.3286,27.0004762 2.3286,27.0004762" id="Stroke-15" stroke-width="0.75"></path><path d="M29.17968,5.58562099 C29.17968,5.58562099 34.58968,10.0495989 35.84288,11.3436818 C37.09648,12.6377646 37.95408,12.6377646 38.61368,17.0370188 C39.27368,21.4366652 40.85688,34.5053724 40.52688,40.0045381 C40.19728,45.5040961 39.66928,44.533632 36.70048,47.7682508 C33.73168,51.0032619 31.48888,52.685295 31.48888,56.5671514 L31.62088,65.883842" id="Stroke-17" stroke-width="0.75"></path><path d="M5.29736,48.1565934 C5.29736,48.1565934 7.27656,50.0327978 7.34256,52.685295 L7.47456,64.5250354" id="Stroke-19" stroke-width="0.75"></path><path d="M46.92648,48.544779 C46.92648,48.544779 41.31888,52.6208066 40.85688,57.9905249 C40.39528,63.3606354 40.46128,64.7190497 40.52688,65.431011" id="Stroke-21" stroke-width="0.75"></path><path d="M0.33416,14.9562088 L3.35496,16.3950376" id="Stroke-23" stroke-width="0.75"></path><path d="M38.22196,14.5330331 L43.65916,13.0094751" id="Stroke-25" stroke-width="0.75"></path><path d="M40.20344,28.8145459 L46.24824,26.5511757" id="Stroke-27" stroke-width="0.75"></path></g></g></g></svg>