<svg xmlns="http://www.w3.org/2000/svg" xmlns:xlink="http://www.w3.org/1999/xlink" viewBox="0 0 100 100" version="1.1" class="svg product-type-image replaced-svg"><!-- Generator: Sketch 3.6.1 (26313) - http://www.bohemiancoding.com/sketch --><title>moto-icon-footwear</title><desc>Created with Sketch.</desc><defs></defs><g id="Page-1" stroke="none" stroke-width="1" fill="none" fill-rule="evenodd"><g id="moto-icon-footwear" stroke="#FFFFFF"><g id="Page-1" transform="translate(25.000000, 19.000000)"><path d="M30.0674679,3.22393113 L29.1695663,3.22393113 C26.7970454,3.14632848 22.5302472,3.65742119 20.2645105,4.51063311 C19.157611,4.92701722 19.0221571,5.29709007 19.1729846,5.56661325 C19.3312912,5.84948742 19.8041334,6.02138146 19.8041334,6.02138146 C19.8041334,6.02138146 22.5481138,6.53706358 25.9120244,5.09724238 C27.4257011,4.44930199 28.7025412,3.83724238 30.0674679,3.22393113 C31.7352961,2.47460662 33.5344232,1.72319603 36.0561096,0.901692715 C40.6415985,-0.59153245 44.4301529,1.34603046 44.4301529,1.34603046 C44.4301529,1.34603046 45.0820768,1.44407682 45.0820768,4.70922914 C45.0820768,4.70922914 45.5470244,16.3713219 45.8121152,18.4373881 C46.0776215,20.5030371 46.9406208,24.5679974 47.3386725,25.3010503 C47.7367242,26.0341033 49.5952682,31.6319245 48.2677367,35.8967325 C48.2677367,35.8967325 50.1699085,42.2276066 50.5908128,42.8275669 C51.0117172,43.4271099 50.8563191,47.0256199 50.5908128,49.1580238 C50.3253066,51.290845 50.0598003,55.8222556 50.0598003,56.5553086 C50.0598003,57.2883616 44.219493,60.3269642 42.8923771,60.7934146 C41.5648457,61.2598649 36.8779742,60.5284808 36.8779742,60.5284808 C36.8779742,60.5284808 33.4683582,61.7263152 31.5437493,62.2595205 C29.6191404,62.7923086 25.3714553,63.1256662 18.7350447,62.2595205 C12.0986341,61.3929576 7.91742947,60.2756464 5.6608338,59.7683086 C3.40465363,59.2605536 1.48004469,58.5546199 1.01551257,57.8879046 C0.550564944,57.2216066 1.01551257,56.0221033 1.01551257,56.0221033 C1.54610964,55.6887457 0.809007682,54.5559974 0.809007682,54.5559974 C0.809007682,54.5559974 0.285474162,49.5581364 4.59922416,47.6255801 C4.59922416,47.6255801 11.7666473,46.2925669 13.6247758,45.6930238 C15.4829043,45.0930636 17.6730196,43.6937126 18.7350447,41.6280636 C18.7350447,41.6280636 19.5398736,40.5332821 20.3455335,41.5729907 C20.3455335,41.5729907 25.4258862,36.9280967 25.8201983,33.5540503 C26.2145105,30.180004 25.2247828,27.3833881 24.8105265,26.9907854 C24.3962703,26.5977656 23.4293953,25.7428848 22.877192,21.652057 C22.877192,21.652057 22.4857884,19.9881894 21.6344232,18.4628384 C20.783058,16.9379046 20.414507,12.4081629 20.3226809,12.2462821 C20.2304392,12.0844013 19.9312772,11.6454874 19.9084246,10.3746397 C19.8851564,9.10337483 19.9562074,6.58212318 19.6121711,5.93418278" id="Stroke-1"></path><path d="M19.9151142,10.5847927 C19.9151142,10.5847927 21.1209033,12.5357066 26.5241016,10.1300245 C31.9277154,7.72434238 33.7114689,6.70048808 34.5782078,6.44431589 C35.4449466,6.18856093 36.9739969,5.36956093 37.3820206,8.18495166 C37.7896288,10.9999252 37.6367238,14.9922894 36.61708,17.7050444 C35.5978516,20.4182166 33.5078726,24.4105808 32.8451456,25.126945 C32.1824186,25.8437265 30.3458963,27.5038391 25.1728865,27.6461106" id="Stroke-3" stroke-width="0.75"></path><path d="M25.8200737,31.5271609 C25.8200737,31.5271609 29.1748432,31.6827834 30.0922734,31.5271609 C31.0101191,31.3715384 31.4177273,31.8325649 32.641383,33.1121742 C33.8646233,34.3917834 38.6050946,36.1829026 40.1856672,36.5412934 C41.7658244,36.8996841 42.4792427,37.2580748 42.4792427,37.2580748 C42.4792427,37.2580748 43.5499934,37.4116113 42.8872664,38.7934391 C42.2245395,40.1756841 42.5814564,40.9433662 40.1345604,40.5336576 C37.6876645,40.1243662 35.6487922,39.4075848 34.0175283,39.7150748 C32.3862643,40.0221477 31.7235374,40.0730483 28.9708314,42.3765119 C26.2185409,44.6799755 24.23036,46.675949 23.2107161,46.7785848 C22.1914878,46.8808033 21.2229508,46.5224126 20.7131288,44.2702669 C20.2033069,42.0181212 20.3454089,41.5733662 20.3454089,41.5733662" id="Stroke-5" stroke-width="0.75"></path><path d="M50.340514,51.7914656 C50.340514,51.7914656 49.004257,51.5386311 47.3218862,53.483704 C45.6399309,55.4287768 41.6128778,56.5035318 38.3503499,57.3738497 C37.8268163,57.5136179 39.4206851,55.5823132 39.777602,53.3301675 C40.1345189,51.0780219 40.5421271,49.951949 41.1541627,48.7745583 C41.7657828,47.5975848 42.7850112,46.9321212 45.435919,44.2702669 C48.0864113,41.6088298 48.7944281,37.6181344 48.7944281,37.6181344 C48.7944281,37.6181344 46.3533492,37.0532205 44.5691802,35.8249291 C42.7850112,34.5962205 42.530308,34.0333927 42.3553813,33.419247 C42.1804546,32.8046841 41.1541627,30.6038563 40.3892221,28.6078828 C39.6246969,26.6114921 38.7579581,25.7924921 40.1345189,22.8235649 C41.5106641,19.855055 45.3096061,9.97490265 45.3025426,9.82428675" id="Stroke-7" stroke-width="0.75" stroke-linejoin="round"></path><path d="M38.3503914,57.3738079 C38.3503914,57.3738079 32.7942881,59.6772715 29.888677,60.035245 C26.983066,60.3936358 13.5257615,58.8582715 10.3143404,58.3463444 C7.10291934,57.8344172 1.55471054,56.564404 1.01538792,56.0220199" id="Stroke-9" stroke-width="0.75"></path><path d="M45.4358774,44.2703921 C45.4358774,44.2703921 42.847295,44.0655377 37.5916002,43.4513921 C32.3354899,42.8372464 33.7461219,44.6287828 31.7155597,45.6013192 C29.6845821,46.5738556 29.3276652,48.3653921 29.9903921,49.8494384 C29.9903921,49.8494384 31.315846,50.0542927 32.6412999,51.5900742 C33.9667538,53.1254384 34.8330772,54.7634384 36.1585311,54.2001934 C37.483985,53.6373656 40.1930632,51.2717364 40.1930632,51.2717364" id="Stroke-11" stroke-width="0.75"></path><path d="M39.4227626,25.7923252 C39.4227626,25.7923252 43.0401299,25.7927424 44.9260971,26.2020338 C46.8120642,26.6113252 47.3385063,25.3012589 47.3385063,25.3012589" id="Stroke-13" stroke-width="0.75"></path><path d="M4.34684777,57.2285325 C4.34684777,57.2285325 2.78372626,51.4579828 5.94445601,50.2296914 C9.10477025,49.0009828 11.1947493,49.9226185 12.7749064,50.4854464 C14.3550635,51.0486914 23.4657933,53.2278238 29.9904337,49.8496053" id="Stroke-15" stroke-width="0.75"></path><path d="M27.4537891,27.464704 L28.7530663,31.5955848" id="Stroke-17" stroke-width="0.75"></path></g></g></g></svg>