<svg xmlns="http://www.w3.org/2000/svg" xmlns:xlink="http://www.w3.org/1999/xlink" viewBox="0 0 230 230" version="1.1" class="svg product-type-image replaced-svg"><!-- Generator: Sketch 3.6.1 (26313) - http://www.bohemiancoding.com/sketch --><title>moto-icon-protective</title><desc>Created with Sketch.</desc><defs></defs><g id="Page-1" stroke="none" stroke-width="1" fill="none" fill-rule="evenodd"><g id="moto-icon-protective" stroke="#FFFFFF"><g id="Page-1" transform="translate(42.000000, 39.000000)"><path d="M13.3878373,5.13897857 L20.2262596,14.7033 L39.5581106,12.9383357 L31.7076634,3.68001429" id="Stroke-1"></path><path d="M20.2263503,14.7032089 C20.2263503,14.7032089 20.2263503,20.8805839 27.9589093,23.3513518 C35.6923752,25.8230304 50.2787727,28.8229232 50.2787727,28.8229232 C50.2787727,28.8229232 56.4298161,30.9412446 51.5093441,25.9987982 C46.5879652,21.0572625 39.5582012,12.9382446 39.5582012,12.9382446" id="Stroke-3"></path><path d="M25.1419255,41.8845696 C25.1419255,41.8845696 34.461441,58.4750518 33.758646,70.4764446 C33.0558509,82.4787482 29.189118,86.5378018 22.159354,89.8919625 C15.1295901,93.2452125 9.59428571,87.5669089 9.59428571,87.5669089" id="Stroke-5"></path><path d="M22.1595354,89.8915982 C22.1595354,89.8915982 27.2559329,91.6565625 31.8254609,94.8331339 C36.3949888,98.0106161 37.4496348,99.2464554 38.6792994,105.952955 C39.9098708,112.660366 44.1275478,132.074973 44.1275478,132.074973 L31.6359329,151.248241" id="Stroke-7"></path><path d="M44.1278199,132.0747 L53.4174099,114.248379 C53.4174099,114.248379 53.9696708,110.895129 58.0114224,110.895129 L73.1328509,110.895129" id="Stroke-9"></path><path d="M6.10787826,96.9509089 C6.10787826,96.9509089 11.6459031,97.3042661 13.387928,104.894159 C15.1299528,112.483141 17.2383379,121.484641 17.2383379,121.484641 C17.2383379,121.484641 19.1717043,126.602855 17.2383379,132.074427 C15.3058783,137.545998 10.3844994,151.247695 10.3844994,151.247695" id="Stroke-11"></path><path d="M25.9724025,151.247968 C25.9724025,151.247968 30.8928745,137.546271 32.826241,132.0747 C34.7596075,126.603129 32.826241,121.484914 32.826241,121.484914 C32.826241,121.484914 30.7178559,112.483414 28.9758311,104.893521 C28.9758311,104.893521 28.311123,102.599432 23.5656696,102.599432 L12.6664522,102.599432" id="Stroke-13"></path><path d="M47.4670484,53.8858714 L50.1032099,66.4182107 C50.1032099,66.4182107 59.9450609,71.1830679 62.4052969,74.8887643 C62.4052969,74.8887643 61.3506509,67.1231036 47.4670484,53.8858714 L47.4670484,53.8858714 Z" id="Stroke-15" stroke-linecap="round" stroke-linejoin="round"></path><path d="M73.1324882,136.602863 C78.8391839,136.602863 88.9739416,138.872363 95.1068484,143.81663 C101.240662,148.759988 115.687407,151.75897 121.497482,152.407398 C127.308463,153.055827 140.866513,151.191595 140.866513,151.191595 C140.866513,151.191595 140.141047,99.3200411 140.141047,94.6189339 C140.141047,89.9178268 136.6706,87.5672732 136.6706,87.5672732 L136.509184,84.8114518 C133.765109,83.0282732 123.030935,66.1700411 121.98173,65.1163446 C121.297072,64.4287554 117.542786,32.6147732 127.227755,28.8872196 C136.912724,25.1587554 145.908501,13.0007196 145.908501,13.0007196 L133.845817,8.46171964 L132.87732,5.13943393 L116.897122,1.49202321 L114.557494,3.68046964 L106.272675,0.938308929 C98.6933702,-1.36306607 95.6962894,17.0479339 95.6962894,17.0479339 C95.6962894,17.0479339 91.2890845,22.1825411 85.6485876,26.7852911 C80.0071839,31.3880411 66.2577925,31.3880411 60.6163888,26.7852911 C54.9758919,22.1825411 50.568687,17.0479339 50.568687,17.0479339 C50.568687,17.0479339 47.5716062,-1.36306607 39.9923019,0.938308929 L31.707482,3.68046964 L29.3678547,1.49202321 L13.3876559,5.13943393 L12.419159,8.46171964 L0.356475776,13.0007196 C0.356475776,13.0007196 9.35225217,25.1587554 19.0372211,28.8872196 C28.7221901,32.6147732 24.9679043,64.4287554 24.283246,65.1163446 C23.234041,66.1700411 12.4998671,83.0282732 9.75579255,84.8114518 L9.5943764,87.5672732 C9.5943764,87.5672732 6.12392919,89.9178268 6.12392919,94.6189339 C6.12392919,99.3200411 5.39846335,151.191595 5.39846335,151.191595 C5.39846335,151.191595 18.956513,153.055827 24.7674944,152.407398 C30.5775689,151.75897 45.0243143,148.759988 51.158128,143.81663 C57.2910348,138.872363 67.4257925,136.602863 73.1324882,136.602863 L73.1324882,136.602863 Z" id="Stroke-17" stroke-width="1.5"></path><path d="M132.877139,5.13897857 L126.038717,14.7033 L106.706866,12.9383357 L114.557313,3.68001429" id="Stroke-19"></path><path d="M126.038626,14.7032089 C126.038626,14.7032089 126.038626,20.8805839 118.306067,23.3513518 C110.572601,25.8230304 95.9862037,28.8229232 95.9862037,28.8229232 C95.9862037,28.8229232 89.8351602,30.9412446 94.7556323,25.9987982 C99.6770112,21.0572625 106.706775,12.9382446 106.706775,12.9382446" id="Stroke-21"></path><path d="M73.1324882,94.8334982 C76.9919665,94.8334982 82.4538174,93.4218911 85.0899789,89.8919625 C87.7261404,86.3611232 96.1614944,79.4779446 98.9735814,78.0663375 C101.785668,76.6538196 102.137519,74.8888554 102.137519,74.8888554 L103.01624,68.1823554 C103.89496,61.4749446 109.44296,47.1102482 109.44296,47.1102482 C111.476985,43.5111054 109.44296,42.0066054 109.44296,42.0066054 C109.44296,42.0066054 107.936712,40.4720518 104.719271,38.0012839 C101.50183,35.5296054 98.7976559,38.0012839 98.7976559,38.0012839 C80.6963764,48.7677482 65.5686,48.7677482 47.4673205,38.0012839 C47.4673205,38.0012839 44.7631466,35.5296054 41.5457056,38.0012839 C38.3282646,40.4720518 36.8220161,42.0066054 36.8220161,42.0066054 C36.8220161,42.0066054 34.7879913,43.5111054 36.8220161,47.1102482 C36.8220161,47.1102482 42.3700161,61.4749446 43.2487366,68.1823554 L44.1274571,74.8888554 C44.1274571,74.8888554 44.4793081,76.6538196 47.291395,78.0663375 C50.103482,79.4779446 58.538836,86.3611232 61.1749975,89.8919625 C63.811159,93.4218911 69.2730099,94.8334982 73.1324882,94.8334982 L73.1324882,94.8334982 Z" id="Stroke-23"></path><path d="M121.123051,41.8845696 C121.123051,41.8845696 111.803535,58.4750518 112.50633,70.4764446 C113.209125,82.4787482 117.075858,86.5378018 124.105622,89.8919625 C131.135386,93.2452125 136.670691,87.5669089 136.670691,87.5669089" id="Stroke-25"></path><path d="M124.105441,89.8915982 C124.105441,89.8915982 119.009043,91.6565625 114.439516,94.8331339 C109.869988,98.0106161 108.815342,99.2464554 107.585677,105.952955 C106.355106,112.660366 102.137429,132.074973 102.137429,132.074973 L114.629043,151.248241" id="Stroke-27"></path><path d="M102.137157,132.0747 L92.8475665,114.248379 C92.8475665,114.248379 92.2953056,110.895129 88.253554,110.895129 L73.1321255,110.895129" id="Stroke-29"></path><path d="M140.157098,96.9509089 C140.157098,96.9509089 134.619073,97.3042661 132.877048,104.894159 C131.135024,112.483141 129.026639,121.484641 129.026639,121.484641 C129.026639,121.484641 127.093272,126.602855 129.026639,132.074427 C130.959098,137.545998 135.880477,151.247695 135.880477,151.247695" id="Stroke-31"></path><path d="M120.292574,151.247968 C120.292574,151.247968 115.372102,137.546271 113.438735,132.0747 C111.505369,126.603129 113.438735,121.484914 113.438735,121.484914 C113.438735,121.484914 115.54712,112.483414 117.289145,104.893521 C117.289145,104.893521 117.953853,102.599432 122.699307,102.599432 L133.598524,102.599432" id="Stroke-33"></path><path d="M98.797928,53.8858714 L96.1617665,66.4182107 C96.1617665,66.4182107 86.3199155,71.1830679 83.8596795,74.8887643 C83.8596795,74.8887643 84.9143255,67.1231036 98.797928,53.8858714 L98.797928,53.8858714 Z" id="Stroke-35" stroke-linecap="round" stroke-linejoin="round"></path></g></g></g></svg>