<svg xmlns="http://www.w3.org/2000/svg" xmlns:xlink="http://www.w3.org/1999/xlink"  viewBox="0 0 100 100" version="1.1" class="svg product-type-image replaced-svg">
    <!-- Generator: Sketch 3.6.1 (26313) - http://www.bohemiancoding.com/sketch -->
    <title>moto-icon-accessories</title>
    <desc>Created with Sketch.</desc>
    <defs></defs>
    <g id="Page-1" stroke="none" stroke-width="1" fill="none" fill-rule="evenodd">
        <g id="moto-icon-accessories">
            <g id="Page-1" transform="translate(16.000000, 27.000000)">
                <path d="M40.0097234,2.66073277 C40.0097234,2.66073277 30.8336091,3.21969076 25.7149577,6.69713613 C20.5963063,10.1745815 19.0354149,11.9755395 18.0367863,16.9435395 C17.0381577,21.9115395 16.226432,30.8537076 16.226432,30.8537076 C16.226432,30.8537076 7.98677486,33.5862622 4.99050057,35.0764303 C1.99422629,36.5669849 -0.502733714,37.5604303 0.371163429,39.4854723 C1.24506057,41.4105143 5.115232,43.0251529 13.729472,44.391237 C22.3441006,45.7577076 28.711232,46.6270689 38.3244891,44.6397916 C47.9373577,42.6525143 53.3684206,39.9203462 58.2372206,37.8708336 C58.2372206,37.8708336 66.1026834,36.7533042 67.4133349,35.8839429 C67.4133349,35.8839429 69.0989577,24.7059429 64.2297691,12.9071361 C59.3609691,1.10832941 40.0097234,2.66073277 40.0097234,2.66073277 L40.0097234,2.66073277 Z" id="Stroke-1" stroke="#FFFFFF" stroke-linecap="round" stroke-linejoin="round"></path>
                <path d="M44.6506263,2.21901681 C44.6506263,2.21901681 44.7267863,0.321033613 42.0557463,0.321033613 C39.3847063,0.321033613 39.5374149,2.67437815 39.5374149,2.67437815 L44.6506263,2.21901681 Z" id="Fill-3" fill="#FFFFFF"></path>
                <path d="M23.7838743,37.2203008 C23.7838743,37.2203008 23.6548686,24.5818975 24.8407886,18.3096622 C26.0270971,12.0378134 28.5240571,10.4231748 32.3942286,7.13204874 C36.2644,3.84053613 42.1322171,2.72300672 42.1322171,2.72300672 C42.1322171,2.72300672 47.7501829,5.02068739 50.0598514,12.3482168 C52.36952,19.6757462 51.6203543,38.1812756 51.6203543,38.1812756" id="Stroke-5" stroke="#FFFFFF" stroke-width="0.75" stroke-linecap="round" stroke-linejoin="round"></path>
                <path d="M16.2265097,30.8537462 C16.2265097,30.8537462 14.8323154,32.9164017 17.3292754,34.6555109 C19.8262354,36.3942336 21.4077211,37.6227042 32.6436526,38.367595 C43.8799726,39.1128723 58.2372983,37.8708723 58.2372983,37.8708723" id="Stroke-7" stroke="#FFFFFF" stroke-width="0.75" stroke-linecap="round" stroke-linejoin="round"></path>
            </g>
        </g>
    </g>
</svg>