<svg xmlns="http://www.w3.org/2000/svg" xmlns:xlink="http://www.w3.org/1999/xlink" viewBox="0 0 100 100" version="1.1" class="svg product-type-image replaced-svg"><!-- Generator: Sketch 3.6.1 (26313) - http://www.bohemiancoding.com/sketch --><title>moto-icon-bags</title><desc>Created with Sketch.</desc><defs></defs><g id="Page-1" stroke="none" stroke-width="1" fill="none" fill-rule="evenodd" stroke-linecap="round" stroke-linejoin="round"><g id="moto-icon-bags" stroke="#FFFFFF"><g id="Page-1" transform="translate(27.000000, 18.000000)"><path d="M17.3868025,5.16961446 L15.2502287,0.614524096 C15.2502287,0.614524096 15.3546303,-0.0738493976 12.9052369,0.296963855 L6.75632705,1.30328916 C6.75632705,1.30328916 5.87026148,2.89226506 5.81825328,4.53410241 C5.76624508,6.17593976 6.49551557,9.72470482 6.49551557,9.72470482 C6.49551557,9.72470482 3.68167951,12.0020542 3.94210574,18.887747 C3.94210574,18.887747 3.78608115,19.9469337 3.42125328,21.0061205 C3.05642541,22.0656988 2.37877787,28.4744639 2.74360574,35.9424157 C2.74360574,35.9424157 0.192507377,35.2011807 0.192507377,39.0146446 L0.503015574,45.5295241 C0.503015574,45.5295241 0.451007377,48.8131988 3.31685164,50.9319639 C3.31685164,50.9319639 3.31685164,57.0760301 4.04650738,58.9825663 C4.77616311,60.889494 5.55782705,63.3258193 9.51815492,63.1139819 C13.4784828,62.9021446 15.0418107,62.927988 17.3868025,63.1269036 C19.7317943,63.3258193 24.0049418,63.6923253 27.1315975,64.2792831 C30.2582533,64.866241 33.8537533,65.868259 35.0002451,61.3660301 C35.0002451,61.3660301 35.0522533,58.7707289 34.6354172,56.4401265 C34.2185811,54.1099157 34.6354172,53.7391024 34.6354172,53.7391024 C34.6354172,53.7391024 41.8788107,53.7919639 45.5267041,48.0715723 C45.5267041,48.0715723 46.9336221,44.7350361 46.6208025,40.1266928 C46.308368,35.518741 44.4842287,37.4785301 44.4842287,37.4785301 C44.4842287,37.4785301 43.1817123,37.7432289 42.1916303,35.9424157 C41.2011631,34.1416024 41.9308189,33.2860301 39.585827,32.4958494 C39.585827,32.4958494 37.9184828,31.5463012 38.6477533,25.9320241 C39.377409,20.317747 41.0971467,6.44063855 41.0971467,6.44063855 C41.0971467,6.44063855 42.0352205,5.96410241 41.8788107,5.01063855 C41.7224008,4.0571747 41.0451385,3.2098253 40.6283025,2.83901205 C40.2110811,2.4681988 34.374991,0.137987952 32.9676877,0.614524096 C31.5607697,1.09145181 32.0299992,1.83268675 29.8934254,3.6335 C27.7568516,5.43431325 23.3272943,5.75226506 17.3868025,5.16961446 L17.3868025,5.16961446 Z" id="Stroke-1"></path><path d="M6.49566967,9.72466566 C6.49566967,9.72466566 7.27733361,7.92385241 14.7291451,8.0295753 C22.1809566,8.13568976 24.2655221,7.81773795 26.4020959,8.45364157 C28.5382844,9.08915361 31.7173336,9.67180422 32.6030139,16.1862922 C33.4890795,22.7011717 34.7915959,38.2201175 34.6875795,42.7223464 C34.5831779,47.2241837 34.4410221,52.499756 34.4891779,54.1556898" id="Stroke-3" stroke-width="0.75"></path><path d="M14.6249361,0.187168675 C14.6249361,0.187168675 12.019518,1.83292169 13.4784443,4.00454819 C13.4784443,4.00454819 14.2081,5.16945783 17.3867639,5.16945783" id="Stroke-5" stroke-width="0.75"></path><path d="M41.0971082,6.44079518 C41.0971082,6.44079518 40.6282639,4.16344578 38.4916902,6.44079518 C36.3551164,8.71814458 32.1070098,13.7955843 32.1070098,13.7955843" id="Stroke-7" stroke-width="0.75"></path><path d="M44.4843057,37.4786084 C44.4843057,37.4786084 41.3788385,41.1135181 34.5938877,38.8193313" id="Stroke-9" stroke-width="0.75"></path><path d="M2.74372131,35.9426114 C2.74372131,35.9426114 3.31041803,50.2426114 3.31696721,50.9317681" id="Stroke-11" stroke-width="0.75"></path><path d="M39.5859041,32.4956928 L35.9380107,38.819488" id="Stroke-13" stroke-width="0.75"></path><path d="M41.7732918,34.9905181 L38.9606115,39.5788916" id="Stroke-15" stroke-width="0.75"></path><path d="M34.9137959,42.3575241 L36.6019434,42.6692108 C36.6019434,42.6692108 37.6579025,42.4573735 37.7619189,44.1520723 C37.8663205,45.8471627 38.0227303,47.9126747 38.0227303,47.9126747 C38.0227303,47.9126747 37.9183287,49.2369518 36.8242303,49.6606265 C35.7297467,50.0843012 34.5936566,50.3493916 34.5936566,50.3493916" id="Stroke-17" stroke-width="0.75"></path><path d="M37.7620344,44.1522681 C37.7620344,44.1522681 43.8589361,42.5793464 46.3603377,39.5787741" id="Stroke-19" stroke-width="0.75"></path><path d="M38.0225762,47.9128313 C38.0225762,47.9128313 42.6139369,47.6614458 46.5195598,43.8941867" id="Stroke-21" stroke-width="0.75"></path><path d="M3.94225984,18.8877078 C3.94225984,18.8877078 5.08682541,23.9725873 13.0348336,23.707497 C20.9824566,23.4427982 22.8062107,21.4301476 23.6398828,20.3705693 C24.4739402,19.3113825 28.2686123,15.183491 28.7990959,9.61189458" id="Stroke-23" stroke-width="0.75"></path><path d="M31.7553959,12.7706596 C31.7553959,12.7706596 27.9129533,19.417497 26.8188549,22.0656596 C25.7243713,24.7138223 24.7342893,25.2436114 25.255527,28.7391235 C25.7767648,32.2350271 28.0165844,41.8746054 28.4338057,48.230509 C28.851027,54.5864127 28.3301746,53.5800873 29.0594451,55.433762 C29.7891008,57.2878283 29.0074369,58.3998765 30.2059369,59.4062018 C31.4044369,60.4125271 33.6569697,61.8104187 34.6932811,62.303009" id="Stroke-25" stroke-width="0.75"></path><path d="M28.7111828,54.4128705 C28.7111828,54.4128705 27.4961172,58.7706114 22.5977156,59.0357018" id="Stroke-27" stroke-width="0.75"></path><path d="M6.0963623,62.3032048 C5.95112459,62.1912169 6.59987869,59.2474217 6.75628852,58.6647711 C6.91269836,58.0821205 7.22513279,56.8639578 11.602682,57.1286566 C15.9798459,57.393747 20.4614115,57.9763976 20.9302557,58.0821205 C21.3994852,58.1882349 23.3796492,59.4063976 26.8187393,61.8427229 C30.2582148,64.2790482 31.9775672,64.4031747 33.332477,64.1290783" id="Stroke-29" stroke-width="0.75"></path><path d="M7.01686885,58.0679849 C7.01686885,58.0679849 3.85245902,56.9344006 3.48801639,55.5044006" id="Stroke-31" stroke-width="0.75"></path><path d="M20.5945525,31.0904006 C20.5945525,31.0904006 20.5017082,46.8658223 21.464823,54.9273886" id="Stroke-33" stroke-width="0.75"></path><path d="M7.55636721,22.7780361 C7.55636721,22.7780361 7.18768689,27.0578554 7.55636721,28.2094518 C7.92504754,29.3610482 7.86841639,30.1672831 10.4179738,30.2248434 C12.9671459,30.2824036 15.5733344,30.2248434 15.5733344,30.2248434 C15.5733344,30.2248434 17.0461295,30.3282169 17.895982,28.4396928 C19.0347689,25.909 19.5086213,22.8579157 19.5086213,22.8579157" id="Stroke-35" stroke-width="0.75"></path><path d="M10.2478492,32.4956928 L10.2478492,39.3226506 L14.4967262,39.3226506 L14.779882,32.4956928 L10.2478492,32.4956928 L10.2478492,32.4956928 Z" id="Stroke-37" stroke-width="0.75"></path><path d="M8.39054016,29.8021476 C8.39054016,29.8021476 7.41509754,33.4495873 10.2478107,34.8314247" id="Stroke-39" stroke-width="0.75"></path><path d="M16.8308926,29.8021476 C16.8308926,29.8021476 17.3868025,33.7949488 14.7798434,34.5436235" id="Stroke-41" stroke-width="0.75"></path><path d="M14.7799975,47.5569367 L10.292268,47.5659428 L11.777391,59.4186536 L16.6495959,59.4186536 C16.6495959,59.4186536 15.0631533,52.3939548 14.7799975,47.5569367 L14.7799975,47.5569367 Z" id="Stroke-45" stroke-width="0.75"></path><path d="M10.2922295,47.5658645 C10.2922295,47.5658645 8.54822131,43.5260753 10.2479262,39.3226114 L14.4968033,39.3226114 C14.4968033,39.3226114 15.6864426,41.683756 14.779959,47.5568584 L10.2922295,47.5658645 L10.2922295,47.5658645 Z" id="Stroke-49" stroke-width="0.75"></path></g></g></g></svg>