<svg xmlns="http://www.w3.org/2000/svg" xmlns:xlink="http://www.w3.org/1999/xlink" viewBox="0 0 230 230" version="1.1" class="svg product-type-image replaced-svg"><!-- Generator: Sketch 3.6.1 (26313) - http://www.bohemiancoding.com/sketch --><title>moto-icon-gloves</title><desc>Created with Sketch.</desc><defs></defs><g id="Page-1" stroke="none" stroke-width="1" fill="none" fill-rule="evenodd" stroke-linecap="round" stroke-linejoin="round"><g id="moto-icon-gloves" stroke="#FFFFFF"><g id="Page-1" transform="translate(60.000000, 27.000000)"><path d="M16.1785673,51.0203976 C16.1785673,51.0203976 12.604625,53.5128527 10.8181827,57.9644934 C10.8181827,57.9644934 1.88385577,65.976182 0.811355769,70.4267689 C-0.260086538,74.8784096 2.06260577,78.4395114 2.06260577,78.4395114 C2.06260577,78.4395114 2.24135577,96.0658587 1.88385577,107.816757 C1.52635577,119.567655 1.34760577,132.564254 5.99299038,140.932158 C10.6394327,149.301116 13.855875,147.341931 13.855875,147.341931 C13.855875,147.341931 17.0723173,162.119607 22.6114519,165.502601 C28.1505865,168.885595 30.8307788,166.92641 30.8307788,166.92641 C30.8307788,166.92641 34.4047212,175.473475 41.5515481,175.473475 C48.6994327,175.473475 52.9873173,168.885595 52.9873173,161.763392 C52.9873173,161.763392 55.8473173,172.090481 62.6366442,172.090481 C69.4270288,172.090481 71.9284712,170.309404 73.0009712,163.900685 C74.0724135,157.490913 76.9313558,106.74811 79.4338558,98.9145293 C79.4338558,98.9145293 83.7217404,101.941308 84.0792404,111.376805 C84.4367404,120.813356 87.2882788,132.747631 88.903375,135.234817 C90.869625,138.261595 93.1923173,141.466481 98.1952019,139.686457 C103.198087,137.90538 102.841644,129.893691 104.806837,125.79932 C106.772029,121.703895 109.630971,118.677116 108.917029,114.581691 C108.202029,110.48732 106.414529,109.418673 105.521837,102.119416 C104.628087,94.8191042 102.662894,90.723679 103.020394,87.3417389 C103.376837,83.9587449 104.270587,81.6443976 103.555587,78.9727808 C102.841644,76.302218 101.054144,75.2346251 98.5527019,72.0297389 C96.0512596,68.8248527 94.2637596,61.3464335 92.2985673,57.6082778 C90.333375,53.8690683 81.9352981,48.8841581 84.0792404,36.7770443 C84.0792404,36.7770443 88.0106827,26.8061701 88.724625,23.9574994 C89.439625,21.1088287 91.048375,18.7944814 87.2956827,12.384709 C83.5429904,5.97493653 73.8936635,-0.433782036 59.5989519,0.0994874252 C59.5989519,0.0994874252 44.2317404,0.27759521 33.8684712,9.71414611 C33.8684712,9.71414611 27.0780865,17.0144575 16.1785673,51.0203976 C16.1785673,51.0203976 26.1853942,49.7736431 30.8307788,49.5955353 C35.4761635,49.4184814 36.3699135,49.4184814 41.9090481,50.8422898 C47.4481827,52.2671521 60.3139519,51.7328287 84.9729904,72.0297389" id="Stroke-1" stroke-width="1.5"></path><path d="M10.8179712,57.9640719 C10.8179712,57.9640719 20.6830673,55.2186826 23.5049904,54.7591856 C26.4823942,54.2743952 27.7347019,54.178491 27.971625,58.4983952 C28.2561442,63.6814371 27.435375,66.1538683 28.865375,67.9349461 C30.2943173,69.7149701 32.7968173,70.605509 35.1195096,68.4682156 C37.4422019,66.331976 38.6934519,60.6346347 39.9436442,58.8546108 C41.1948942,57.0735329 43.1600865,55.293509 45.8402788,56.0059401 C48.5204712,56.7173174 75.3234519,60.8127425 84.9727788,72.0293174 C84.9727788,72.0293174 78.7186442,91.7919042 79.4336442,98.9141078" id="Stroke-3"></path><path d="M97.4805192,70.961303 C97.4805192,70.961303 93.3703269,80.2197461 102.662154,88.2314347" id="Stroke-5"></path><path d="M105.521413,103.89944 C105.521413,103.89944 94.2643942,114.759799 103.377471,130.071799" id="Stroke-7"></path><path d="M4.50978846,65.0294707 C4.50978846,65.0294707 12.8496923,60.6684647 19.6400769,61.3808958 C19.6400769,61.3808958 18.32325,85.7384527 26.1850769,97.1341892 C26.1850769,97.1341892 18.32325,99.4485365 14.3918077,93.929303 C10.4603654,88.4100695 2.06228846,78.4391952 2.06228846,78.4391952" id="Stroke-9"></path><path d="M49.4141154,62.5932934 C49.4141154,62.5932934 39.4072885,71.1393054 32.9754615,96.4211257 C32.9754615,96.4211257 31.3667115,101.585198 47.0914231,99.8041198 C47.0914231,99.8041198 51.0218077,89.1218683 66.2102692,89.8342994 L70.3204615,90.3686228 C70.3204615,90.3686228 78.0035385,82.1777725 78.0035385,77.7271856 C78.0035385,77.7271856 75.1445962,67.221988 49.4141154,62.5932934 L49.4141154,62.5932934 Z" id="Stroke-11"></path><path d="M60.1352019,0.456019162 C60.1352019,0.456019162 79.7902981,42.6528096 84.4367404,57.9637557 C84.4367404,57.9637557 86.2231827,65.6202826 84.9729904,72.0300551" id="Stroke-13"></path><path d="M25.2915385,26.2723737 C25.2915385,26.2723737 42.6239423,13.0966132 67.8192308,18.4387928" id="Stroke-15"></path><path d="M13.8555577,147.342141 C13.8555577,147.342141 9.56661538,131.852034 9.92411538,98.9147401" id="Stroke-17"></path><path d="M27.9717308,103.187219 C27.9717308,103.187219 24.7552885,138.439914 30.8306731,166.92662" id="Stroke-19"></path><path d="M50.6648365,107.10422 C50.6648365,107.10422 47.4483942,141.288268 52.9875288,161.763286" id="Stroke-21"></path><path d="M59.2408173,151.959032 L63.8597596,152.038074 L66.5674519,157.235871 L64.8159135,163.386386 L60.6739904,163.663559 L57.4882212,158.148541 L59.2408173,151.959032 L59.2408173,151.959032 Z" id="Stroke-23"></path><path d="M36.702875,151.363794 L41.5608558,151.959243 L44.1490288,157.276129 L41.4413365,163.504632 L38.2555673,163.42559 L35.2295096,157.791483 L36.702875,151.363794 L36.702875,151.363794 Z" id="Stroke-25"></path><path d="M14.6824615,146.920057 L20.0576538,148.507219 L23.0847692,153.307698 L21.6505385,159.973566 L19.0232308,161.045375" id="Stroke-27"></path><path d="M82.7305769,80.3293509 C82.7305769,80.3293509 86.9063462,78.088776 90.1185577,80.9690635 C93.3318269,83.8504048 99.1131731,90.0915545 99.4347115,94.7328958 C99.75625,99.3742371 98.3103846,110.41692 93.4915385,113.457399 C88.67375,116.498932 85.14,116.018357 85.14,116.018357" id="Stroke-29"></path><path d="M25.5506731,72.4874443 C25.5506731,72.4874443 30.5302885,78.0888814 35.1873077,73.7679234 C35.1873077,73.7679234 33.9032692,83.2097437 30.20875,86.4114683 C26.5142308,89.6121389 25.5506731,72.4874443 25.5506731,72.4874443 L25.5506731,72.4874443 Z" id="Stroke-31"></path></g></g></g></svg>