<svg xmlns="http://www.w3.org/2000/svg" xmlns:xlink="http://www.w3.org/1999/xlink" viewBox="0 0 100 100" version="1.1" class="svg product-type-image replaced-svg"><!-- Generator: Sketch 3.6.1 (26313) - http://www.bohemiancoding.com/sketch --><title>moto-icon-pants</title><desc>Created with Sketch.</desc><defs></defs><g id="Page-1" stroke="none" stroke-width="1" fill="none" fill-rule="evenodd"><g id="moto-icon-pants" stroke="#FFFFFF"><g id="Page-1" transform="translate(31.000000, 9.000000)"><path d="M19.6773325,4.272425 C19.6773325,4.272425 10.011441,4.44549886 4.8328988,3.66595909 C4.8328988,3.66595909 3.52757349,3.64237955 3.39835663,4.17622045 L2.8988747,6.24697614 C2.8988747,6.24697614 2.64091084,6.73224318 3.39835663,6.87796477 C3.39835663,6.87796477 2.53142892,10.2974705 1.81768193,17.656175 C1.10346506,25.0153511 0.554175904,31.2167716 0.389718072,33.3941068 C0.224790361,35.571442 0.0875855422,38.0072091 0.554175904,42.8249818 C1.02123614,47.6432261 0.719103614,51.0608455 0.719103614,51.0608455 C0.719103614,51.0608455 1.48782651,65.3377886 1.76270602,67.0190102 C2.03711566,68.7002318 1.87218795,71.5387375 1.87218795,72.0074989 C1.87218795,72.4762602 3.10797108,78.5673284 3.16294699,80.1933739 C3.21792289,81.8194193 3.10797108,82.3707091 3.10797108,82.3707091 C3.10797108,82.3707091 13.1591639,83.6935216 16.7015855,81.4888341 C16.7015855,81.4888341 16.4544289,78.4843284 16.0150916,76.9959875 C15.5757542,75.5076466 15.9601157,71.8697943 15.9601157,71.8697943 C15.9601157,71.8697943 15.3558506,67.3495955 15.1364169,65.7787261 C14.9165133,64.2073852 15.5757542,62.0852261 15.6307301,61.7819932 C15.685706,61.4792318 15.6030072,57.5928511 16.1250434,55.8842773 C16.6466096,54.1752318 16.4271759,41.7176864 16.8387904,40.2566977 C17.2508747,38.7961807 16.9487422,37.2800159 16.9487422,37.1696636 C16.9487422,37.059783 18.2117783,34.331158 18.3217301,31.6850614 C18.4316819,29.0394364 19.3197542,27.8519705 19.3197542,27.8519705 C19.3197542,27.8519705 19.2675976,20.5437261 19.4245373,20.0179023" id="Stroke-1"></path><path d="M3.39840361,6.87791761 C3.39840361,6.87791761 8.01778916,8.01398011 19.4245843,7.61124148" id="Stroke-3" stroke-width="0.75"></path><path d="M2.13480361,15.1940932 C2.13480361,15.1940932 2.95239398,30.7858318 3.39830964,31.6521443 L0.389671084,33.3937295" id="Stroke-5" stroke-width="0.75"></path><path d="M17.0531494,38.3776437 C17.0531494,38.3776437 7.01417349,34.1488881 3.3984506,31.6522858 L2.90554699,27.4249449 L17.5968,35.3698369" id="Stroke-7" stroke-width="0.75"></path><path d="M0.431678313,41.4442108 C0.431678313,41.4442108 2.16459398,39.7408244 16.8389313,40.2567449 L16.555594,46.124279 C16.555594,46.124279 15.7751241,44.7472335 14.2517747,44.7981653 C14.2517747,44.7981653 7.34736506,43.7304835 1.05191928,46.124279 L0.431678313,41.4442108 L0.431678313,41.4442108 Z" id="Stroke-9" stroke-width="0.75"></path><path d="M1.76261205,67.0188687 C1.76261205,67.0188687 7.04264819,58.8103574 10.9012988,56.9758687 C14.7594795,55.1413801 16.3819735,53.3045335 16.3819735,53.3045335" id="Stroke-11" stroke-width="0.75"></path><path d="M3.17746627,79.3000392 C3.17746627,79.3000392 10.3534663,80.4205392 16.5417795,78.3827949" id="Stroke-13" stroke-width="0.75"></path><path d="M4.58376867,47.7894193 C4.58376867,47.7894193 7.4462747,46.4458568 12.2940217,47.4187489 C17.1417687,48.3916409 11.5074434,52.7010386 10.0080578,52.7472545 C8.50820241,52.793942 4.30653976,52.840158 3.19856386,51.5890273 C2.09058795,50.3378966 2.87575663,48.4845443 4.58376867,47.7894193 L4.58376867,47.7894193 Z" id="Stroke-15" stroke-width="0.75"></path><path d="M19.480641,4.272425 C19.480641,4.272425 29.1465325,4.44549886 34.3250747,3.66595909 C34.3250747,3.66595909 35.6308699,3.64237955 35.7596169,4.17622045 L36.2590988,6.24697614 C36.2590988,6.24697614 36.5170627,6.73224318 35.7596169,6.87796477 C35.7596169,6.87796477 36.6265446,10.2974705 37.3402916,17.656175 C38.0545084,25.0153511 38.6037976,31.2167716 38.7682554,33.3941068 C38.9331831,35.571442 39.070388,38.0072091 38.6037976,42.8249818 C38.1367373,47.6432261 38.4388699,51.0608455 38.4388699,51.0608455 C38.4388699,51.0608455 37.670147,65.3377886 37.3952675,67.0190102 C37.1208578,68.7002318 37.2857855,71.5387375 37.2857855,72.0074989 C37.2857855,72.4762602 36.0500024,78.5673284 35.9950265,80.1933739 C35.9400506,81.8194193 36.0500024,82.3707091 36.0500024,82.3707091 C36.0500024,82.3707091 25.9988096,83.6935216 22.456388,81.4888341 C22.456388,81.4888341 22.7035446,78.4843284 23.1428819,76.9959875 C23.5822193,75.5076466 23.1978578,71.8697943 23.1978578,71.8697943 C23.1978578,71.8697943 23.8021229,67.3495955 24.0215566,65.7787261 C24.2414602,64.2073852 23.5822193,62.0852261 23.5272434,61.7819932 C23.4722675,61.4792318 23.5549663,57.5928511 23.0329301,55.8842773 C22.5113639,54.1752318 22.7307976,41.7176864 22.3191831,40.2566977 C21.9070988,38.7961807 22.2092313,37.2800159 22.2092313,37.1696636 C22.2092313,37.059783 20.9461952,34.331158 20.8362434,31.6850614 C20.7262916,29.0394364 19.8382193,27.8519705 19.8382193,27.8519705 C19.8382193,27.8519705 19.8903759,20.5437261 19.7334361,20.0179023" id="Stroke-17"></path><path d="M35.7595699,6.87791761 C35.7595699,6.87791761 31.1401843,8.01398011 19.7333892,7.61124148" id="Stroke-19" stroke-width="0.75"></path><path d="M37.0231699,15.1940932 C37.0231699,15.1940932 36.2055795,30.7858318 35.7596639,31.6521443 L38.7683024,33.3937295" id="Stroke-21" stroke-width="0.75"></path><path d="M22.1048241,38.3776437 C22.1048241,38.3776437 32.1438,34.1488881 35.7595229,31.6522858 L36.2524265,27.4249449 L21.5611735,35.3698369" id="Stroke-23" stroke-width="0.75"></path><path d="M38.7262952,41.4442108 C38.7262952,41.4442108 36.9933795,39.7408244 22.3190422,40.2567449 L22.6023795,46.124279 C22.6023795,46.124279 23.3828494,44.7472335 24.9061988,44.7981653 C24.9061988,44.7981653 31.8106084,43.7304835 38.1060542,46.124279 L38.7262952,41.4442108 L38.7262952,41.4442108 Z" id="Stroke-25" stroke-width="0.75"></path><path d="M37.3954084,67.0188687 C37.3954084,67.0188687 32.1153723,58.8103574 28.2567217,56.9758687 C24.398541,55.1413801 22.776047,53.3045335 22.776047,53.3045335" id="Stroke-27" stroke-width="0.75"></path><path d="M35.9805072,79.3000392 C35.9805072,79.3000392 28.8045072,80.4205392 22.616194,78.3827949" id="Stroke-29" stroke-width="0.75"></path><path d="M34.5742048,47.7894193 C34.5742048,47.7894193 31.7116988,46.4458568 26.8639518,47.4187489 C22.0162048,48.3916409 27.6505301,52.7010386 29.1499157,52.7472545 C30.6497711,52.793942 34.8514337,52.840158 35.9594096,51.5890273 C37.0673855,50.3378966 36.2822169,48.4845443 34.5742048,47.7894193 L34.5742048,47.7894193 Z" id="Stroke-31" stroke-width="0.75"></path><path d="M19.4247723,20.0177608 L22.5156398,18.545454 L22.8882542,7.69791989 L19.4247723,7.61161875 L19.4247723,20.0177608 L19.4247723,20.0177608 Z" id="Stroke-33" stroke-width="0.75"></path><path d="M5.42833012,3.74886477 L10.2511735,0.258620455 L28.9068,0.258620455 L33.7296434,3.74886477" id="Stroke-35" stroke-width="0.75"></path></g></g></g></svg>